<?xml version="1.0" encoding="UTF-8"?>
<!-- Generator: Adobe Illustrator 27.4.1, SVG Export Plug-In . SVG Version: 6.00 Build 0)  -->
<svg xmlns="http://www.w3.org/2000/svg" xmlns:xlink="http://www.w3.org/1999/xlink" version="1.1" id="Layer_2_00000060008043404499257570000013152367215662160289_" x="0px" y="0px" viewBox="0 0 1805.8 278.4" style="enable-background:new 0 0 1805.8 278.4;" xml:space="preserve">
<style type="text/css">
	.st0{fill:#0073E6;}
	.st1{fill:#191919;}
</style>
<g id="Layer_1-2">
	<g>
		<path class="st0" d="M221.9,50.2h-42.6v30c0,5.6-4.6,10.2-10.2,10.2H96.8c-1.9,0-3.4,1.5-3.4,3.4V117c0,1.9,1.5,3.4,3.4,3.4h48.8    c5.6,0,10.2,4.6,10.2,10.2v19.9c0,5.6-4.6,10.2-10.2,10.2H96.8c-1.9,0-3.4,1.5-3.4,3.4v46.7c0,5.6-4.6,10.2-10.2,10.2h-30v39.7    c0,5.8,4.7,10.5,10.5,10.5h158.3c5.8,0,10.5-4.7,10.5-10.5V60.7C232.4,54.9,227.7,50.2,221.9,50.2z"></path>
		<path class="st0" d="M63.6,50.2h115.7V10.5c0-5.8-4.7-10.5-10.5-10.5H10.5C4.7,0,0,4.7,0,10.5v199.9c0,5.8,4.7,10.5,10.5,10.5    h42.6V60.7C53.1,54.9,57.8,50.2,63.6,50.2z"></path>
	</g>
	<g>
		<path class="st1" d="M338,51.3h101.9c2.1,0,3.8,1.7,3.8,3.8v19.7c0,2.1-1.7,3.8-3.8,3.8h-71.7c-2.1,0-3.8,1.7-3.8,3.8v37    c0,2.1,1.7,3.8,3.8,3.8h46.4c2.1,0,3.8,1.7,3.8,3.8v19.8c0,2.1-1.7,3.8-3.8,3.8h-46.4c-2.1,0-3.8,1.7-3.8,3.8v62.9    c0,2.1-1.7,3.8-3.8,3.8H338c-2.1,0-3.8-1.7-3.8-3.8v-162C334.2,53,335.9,51.3,338,51.3L338,51.3z"></path>
		<path class="st1" d="M424.4,163.4c0-9.1,1.6-17.4,4.9-24.8c3.3-7.4,7.7-13.8,13.3-19.1c5.6-5.3,12.2-9.3,19.9-12.2    c7.7-2.9,15.8-4.3,24.4-4.3s16.8,1.4,24.5,4.3c7.7,2.9,14.3,7,19.9,12.2c5.6,5.3,10,11.6,13.3,19.1c3.3,7.4,4.9,15.7,4.9,24.8    s-1.6,17.3-4.9,24.8c-3.3,7.4-7.7,13.8-13.3,19.1c-5.6,5.3-12.2,9.3-19.9,12.2c-7.7,2.9-15.8,4.3-24.5,4.3s-16.8-1.4-24.4-4.3    c-7.7-2.9-14.3-7-19.9-12.2c-5.6-5.3-10-11.6-13.3-19.1C426.1,180.8,424.4,172.5,424.4,163.4z M453.2,163.4    c0,4.5,0.8,8.8,2.3,12.9c1.5,4.1,3.8,7.8,6.7,11c3,3.2,6.5,5.7,10.7,7.6c4.1,1.9,8.9,2.9,14.1,2.9s10-1,14.1-2.9    c4.1-1.9,7.7-4.5,10.7-7.6c3-3.2,5.2-6.9,6.7-11s2.3-8.4,2.3-12.9s-0.8-8.8-2.3-12.9c-1.5-4.1-3.8-7.8-6.7-11    c-3-3.2-6.5-5.7-10.7-7.6c-4.1-1.9-8.9-2.9-14.1-2.9s-10,1-14.1,2.9c-4.1,1.9-7.7,4.5-10.7,7.6c-3,3.2-5.2,6.9-6.7,11    S453.2,158.9,453.2,163.4L453.2,163.4z"></path>
		<path class="st1" d="M561.8,105.9H583c2.1,0,3.8,1.7,3.8,3.8v14.4h0.5c3.2-6.7,7.8-11.9,13.7-15.6c5.9-3.7,12.7-5.5,20.4-5.5    c1.7,0,3.5,0.2,5.2,0.5c0.7,0.1,1.4,0.3,2.2,0.4c1.7,0.4,3,1.9,3,3.7v20c0,2.4-2.2,4.2-4.5,3.7c-0.9-0.2-1.7-0.3-2.6-0.5    c-2.3-0.4-4.6-0.6-6.8-0.6c-6.7,0-12.1,1.2-16.2,3.7c-4.1,2.5-7.2,5.3-9.3,8.5c-2.2,3.2-3.6,6.4-4.3,9.6c-0.7,3.2-1.1,5.6-1.1,7.2    v57.8c0,2.1-1.7,3.8-3.8,3.8h-21.2c-2.1,0-3.8-1.7-3.8-3.8V109.7C558.1,107.6,559.8,106,561.8,105.9L561.8,105.9z"></path>
		<path class="st1" d="M644.7,105.9h19.8c2.1,0,3.8,1.7,3.8,3.8v14.2h0.5c2.5-5.4,6.7-10.3,12.3-14.5c5.7-4.2,13.3-6.3,22.9-6.3    c15.5,0,26.5,5.3,33.1,15.8c1.4,2.2,4.6,2.5,6.2,0.4c3.5-4.8,7.6-8.4,12.2-11c6.2-3.4,13.7-5.2,22.3-5.2c7.7,0,14.1,1.3,19.4,3.8    c5.3,2.6,9.5,6.1,12.8,10.6c3.3,4.5,5.6,9.7,7.1,15.7s2.2,12.4,2.2,19.3v64.7c0,2.1-1.7,3.8-3.8,3.8h-21.2c-2.1,0-3.8-1.7-3.8-3.8    v-61.4c0-3.5-0.3-6.9-1-10.2c-0.6-3.3-1.8-6.1-3.4-8.6c-1.6-2.5-3.7-4.4-6.5-5.9c-2.7-1.4-6.2-2.2-10.5-2.2s-8.3,0.9-11.4,2.5    c-3.1,1.7-5.7,3.9-7.7,6.7c-2,2.8-3.4,6-4.3,9.6c-0.9,3.6-1.3,7.2-1.3,10.9v58.5c0,2.1-1.7,3.8-3.8,3.8h-21.2    c-2.1,0-3.8-1.7-3.8-3.8v-64.7c0-7.2-1.5-12.9-4.5-17.1c-3-4.2-8.1-6.4-15.1-6.4c-4.8,0-8.8,0.8-12.1,2.4c-3.3,1.6-6,3.8-8.1,6.5    s-3.7,5.8-4.7,9.3c-1,3.5-1.4,7.2-1.4,11v59c0,2.1-1.7,3.8-3.8,3.8h-21.2c-2.1,0-3.8-1.7-3.8-3.8V109.7    C640.9,107.6,642.6,106,644.7,105.9L644.7,105.9z"></path>
		<path class="st1" d="M900.7,51.3h21.1c1.5,0,2.9,0.9,3.5,2.3l69.8,162c1.1,2.5-0.8,5.3-3.5,5.3h-26.2c-1.5,0-2.9-0.9-3.5-2.4    L948,184.5c-0.6-1.4-2-2.4-3.5-2.4h-68.4c-1.5,0-3,0.9-3.5,2.4l-13.4,34c-0.6,1.4-2,2.4-3.5,2.4h-25.4c-2.7,0-4.6-2.8-3.5-5.3    l70.5-162C897.8,52.2,899.2,51.3,900.7,51.3L900.7,51.3z M934.6,151.1L914,96.5c-1.2-3.2-5.8-3.3-7.1,0l-21,54.6    c-1,2.5,0.9,5.1,3.5,5.1h41.7C933.7,156.3,935.6,153.6,934.6,151.1L934.6,151.1z"></path>
		<path class="st1" d="M1071.2,135.1c-1.6,1.4-3.9,1.2-5.3-0.3c-5.3-5.8-12-8.8-20.1-8.8c-3.8,0-7.6,1-11.3,2.9s-5.5,5-5.5,9.4    c0,3.5,1.5,6.1,4.6,7.7c3,1.6,6.8,2.9,11.5,4.1c4.6,1.1,9.6,2.3,15,3.5c5.3,1.2,10.3,3,15,5.5c4.6,2.5,8.5,5.9,11.5,10.2    c3,4.3,4.6,10.2,4.6,17.7c0,6.9-1.5,12.7-4.4,17.4c-3,4.7-6.8,8.5-11.5,11.4c-4.7,2.9-10,4.9-15.9,6.2c-5.9,1.3-11.8,1.9-17.7,1.9    c-8.9,0-17.2-1.3-24.7-3.8c-6.4-2.2-12.2-5.8-17.4-11c-1.5-1.5-1.5-4,0-5.5l13.6-12.8c1.5-1.4,3.8-1.4,5.2,0c3,3,6.1,5.5,9.4,7.6    c4.2,2.6,9.4,3.9,15.4,3.9c2.1,0,4.2-0.2,6.5-0.7c2.2-0.5,4.3-1.3,6.2-2.4c1.9-1.1,3.5-2.5,4.7-4.2c1.2-1.7,1.8-3.6,1.8-5.9    c0-4-1.5-6.9-4.6-8.9c-3-1.9-6.8-3.5-11.5-4.7c-4.6-1.2-9.6-2.3-15-3.4s-10.3-2.7-15-5c-4.6-2.3-8.5-5.6-11.5-9.7    c-3-4.1-4.5-9.9-4.5-17.2c0-6.4,1.3-11.9,4-16.6s6.1-8.6,10.4-11.6c4.3-3,9.2-5.3,14.9-6.7c5.6-1.4,11.3-2.2,17-2.2    c7.7,0,15.2,1.3,22.8,3.9c6.3,2.2,11.6,5.7,15.8,10.6c1.4,1.6,1.2,3.9-0.3,5.3L1071.2,135.1L1071.2,135.1z"></path>
		<path class="st1" d="M1168.2,135.1c-1.6,1.4-3.9,1.2-5.3-0.3c-5.3-5.8-12-8.8-20.1-8.8c-3.8,0-7.6,1-11.3,2.9    c-3.7,1.9-5.5,5-5.5,9.4c0,3.5,1.5,6.1,4.6,7.7c3,1.6,6.9,2.9,11.5,4.1c4.6,1.1,9.6,2.3,15,3.5c5.4,1.2,10.3,3,15,5.5    c4.6,2.5,8.4,5.9,11.5,10.2c3,4.3,4.6,10.2,4.6,17.7c0,6.9-1.5,12.7-4.4,17.4c-2.9,4.7-6.8,8.5-11.5,11.4    c-4.7,2.9-10,4.9-15.9,6.2c-5.9,1.3-11.8,1.9-17.7,1.9c-8.9,0-17.2-1.3-24.7-3.8c-6.4-2.2-12.2-5.8-17.4-11c-1.5-1.5-1.6-4,0-5.5    l13.6-12.8c1.5-1.4,3.8-1.4,5.2,0c3,3,6.1,5.5,9.4,7.6c4.2,2.6,9.4,3.9,15.4,3.9c2.1,0,4.2-0.2,6.5-0.7c2.2-0.5,4.3-1.3,6.2-2.4    c1.9-1.1,3.5-2.5,4.7-4.2c1.2-1.7,1.8-3.6,1.8-5.9c0-4-1.5-6.9-4.6-8.9c-3-1.9-6.9-3.5-11.5-4.7c-4.6-1.2-9.6-2.3-15-3.4    c-5.4-1-10.3-2.7-15-5c-4.6-2.3-8.5-5.6-11.5-9.7c-3.1-4.1-4.6-9.9-4.6-17.2c0-6.4,1.3-11.9,4-16.6s6.1-8.6,10.4-11.6    c4.3-3,9.3-5.3,14.8-6.7c5.6-1.4,11.3-2.2,17-2.2c7.7,0,15.2,1.3,22.8,3.9c6.3,2.2,11.6,5.7,15.8,10.6c1.4,1.6,1.2,3.9-0.3,5.3    L1168.2,135.1L1168.2,135.1z"></path>
		<path class="st1" d="M1227.1,173.5c-2.4,0-4.3,2.2-3.7,4.6c1.5,6.5,4.6,11.6,9.3,15.6c5.8,4.8,12.7,7.2,20.8,7.2    c7.2,0,13.2-1.5,18.1-4.4c3.9-2.4,7.5-5.3,10.6-8.6c1.3-1.4,3.5-1.6,5-0.4l14.6,11c1.8,1.4,2,3.9,0.5,5.6    c-6,6.6-12.6,11.5-19.8,14.5c-8.3,3.5-17,5.3-26.1,5.3c-8.6,0-16.8-1.4-24.4-4.3c-7.7-2.9-14.3-7-19.9-12.2    c-5.6-5.3-10-11.6-13.3-19.1c-3.3-7.4-4.9-15.7-4.9-24.8s1.6-17.4,4.9-24.8c3.3-7.4,7.7-13.8,13.3-19.1    c5.6-5.3,12.2-9.3,19.9-12.2c7.7-2.9,15.8-4.3,24.4-4.3c8,0,15.3,1.4,21.9,4.2c6.6,2.8,12.3,6.8,17,12.1c4.7,5.3,8.4,11.8,11,19.5    c2.6,7.8,3.9,16.6,3.9,26.7v4.1c0,2.1-1.7,3.8-3.8,3.8L1227.1,173.5L1227.1,173.5z M1277.5,151.9c2.3,0,4.1-2,3.8-4.2    c-0.8-6.5-3.4-11.7-7.6-15.8c-5.1-4.9-12.2-7.3-21.3-7.3c-8.6,0-15.4,2.5-20.5,7.4c-4.1,4-6.9,9.1-8.4,15.2    c-0.6,2.4,1.3,4.6,3.7,4.6L1277.5,151.9L1277.5,151.9z"></path>
		<path class="st1" d="M1324,105.9h19.7c2.1,0,3.8,1.7,3.8,3.8v14.2h0.5c2.6-5.4,6.7-10.3,12.3-14.5c5.7-4.2,13.3-6.3,22.9-6.3    c15.5,0,26.6,5.3,33.1,15.8c1.4,2.2,4.6,2.5,6.2,0.3c3.5-4.8,7.6-8.4,12.2-11c6.2-3.4,13.7-5.2,22.3-5.2c7.7,0,14.2,1.3,19.4,3.8    c5.3,2.6,9.6,6.1,12.8,10.6c3.3,4.5,5.6,9.7,7.1,15.7c1.4,6,2.2,12.4,2.2,19.3v64.7c0,2.1-1.7,3.8-3.8,3.8h-21.2    c-2.1,0-3.8-1.7-3.8-3.8v-61.4c0-3.5-0.3-6.9-1-10.2c-0.6-3.3-1.7-6.1-3.3-8.6c-1.6-2.5-3.8-4.4-6.5-5.9    c-2.7-1.4-6.2-2.2-10.6-2.2s-8.2,0.9-11.4,2.5c-3.1,1.7-5.7,3.9-7.7,6.7c-2,2.8-3.4,6-4.3,9.6c-0.9,3.6-1.3,7.2-1.3,10.9v58.5    c0,2.1-1.7,3.8-3.8,3.8h-21.2c-2.1,0-3.8-1.7-3.8-3.8v-64.7c0-7.2-1.5-12.9-4.6-17.1c-3-4.2-8.1-6.4-15.1-6.4    c-4.8,0-8.8,0.8-12.1,2.4c-3.3,1.6-6,3.8-8.1,6.5c-2.1,2.7-3.7,5.8-4.7,9.3c-1,3.5-1.4,7.2-1.4,11v59c0,2.1-1.7,3.8-3.8,3.8H1324    c-2.1,0-3.8-1.7-3.8-3.8V109.7C1320.2,107.6,1321.9,106,1324,105.9L1324,105.9z"></path>
		<path class="st1" d="M1515.4,49.5h21.2c2.1,0,3.8,1.7,3.8,3.8v67.3h0.7c1.4-1.9,3.3-3.9,5.5-5.9c2.2-2,4.9-3.9,8.1-5.6    c3.2-1.7,6.9-3.2,11-4.3c4.1-1.1,8.9-1.7,14.3-1.7c8.1,0,15.7,1.6,22.5,4.7c6.9,3.1,12.7,7.4,17.6,12.8    c4.9,5.4,8.7,11.8,11.4,19.2c2.7,7.4,4.1,15.2,4.1,23.7s-1.3,16.4-3.8,23.7c-2.6,7.4-6.3,13.7-11.3,19.1    c-4.9,5.4-10.9,9.7-18,12.8s-14.9,4.7-23.7,4.7c-8.1,0-15.7-1.6-22.8-4.8c-7-3.2-12.6-8.3-16.8-15.3h-0.5v13.5    c0,2.1-1.7,3.8-3.8,3.8h-19.7c-2.1,0-3.8-1.7-3.8-3.8V53.2C1511.6,51.1,1513.2,49.5,1515.4,49.5L1515.4,49.5z M1606.9,163.4    c0-4.5-0.8-8.8-2.3-12.9c-1.5-4.1-3.7-7.8-6.7-11c-2.9-3.2-6.5-5.7-10.7-7.6c-4.2-1.9-8.8-2.9-14.1-2.9s-10,1-14.1,2.9    c-4.2,1.9-7.7,4.5-10.7,7.6c-3,3.2-5.2,6.9-6.7,11s-2.3,8.4-2.3,12.9s0.8,8.8,2.3,12.9c1.5,4.1,3.7,7.8,6.7,11    c2.9,3.2,6.5,5.7,10.7,7.6c4.2,1.9,8.8,2.9,14.1,2.9s10-1,14.1-2.9c4.2-1.9,7.7-4.5,10.7-7.6c3-3.2,5.2-6.9,6.7-11    S1606.9,167.9,1606.9,163.4z"></path>
		<path class="st1" d="M1649.4,49.5h21.2c2.1,0,3.8,1.7,3.8,3.8v163.9c0,2.1-1.7,3.8-3.8,3.8h-21.2c-2.1,0-3.8-1.7-3.8-3.8V53.2    C1645.6,51.1,1647.3,49.5,1649.4,49.5z"></path>
		<path class="st1" d="M1688.1,105.9h23.3c1.5,0,2.9,0.9,3.5,2.4l31.1,77.4h0.5l27.8-77.3c0.5-1.5,2-2.5,3.6-2.5h21.7    c2.7,0,4.5,2.7,3.5,5.2l-52.3,134.5c-2.1,5.4-4.4,10.2-6.8,14.2s-5.4,7.5-8.7,10.3c-3.4,2.8-7.3,4.9-11.9,6.2    c-4.6,1.4-10,2-16.4,2s-12.6-0.7-18.7-2c-1.9-0.4-3.1-2.3-2.8-4.2l2.5-18.1c0.3-2.3,2.6-3.7,4.8-3.1c2,0.5,4,1,6.2,1.4    c0.2,0,0.4,0.1,0.6,0.1c5.2,0.3,9.4,0,12.6-0.8c2.4-0.6,4.4-1.6,6.1-3c1.7-1.4,3.1-3.1,4.2-5.3c1.1-2.2,2.3-4.8,3.6-7.8l4.9-12.2    c0.4-0.9,0.4-2,0-2.9l-46.3-109.2C1683.6,108.7,1685.4,106,1688.1,105.9L1688.1,105.9z"></path>
	</g>
</g>
</svg>
